<svg width="2272" height="462" viewBox="0 0 2272 462" fill="none" xmlns="http://www.w3.org/2000/svg">
<g clip-path="url(#clip0_2239_3390)">
<path d="M613.52 255.6C604.61 257.48 587.25 258.17 579.58 256.96C559.1 253.73 543.33 245.46 528.94 230.38C517.85 218.75 511.08 206.83 506.79 191.31C503.87 180.79 503.6 152.34 506.31 141.56C513.7 112.2 535.75 87.5101 563 78.0901C574.21 74.2101 581.35 73.0001 592.93 73.0101C605.15 73.0201 613.26 74.3301 624.45 78.1201C637.74 82.6201 646.09 87.9601 657 98.9401C668.14 110.15 674.07 119.99 679.03 135.5C681.85 144.32 682.28 147.21 682.7 160C682.96 167.98 682.73 176.98 682.19 180C675.31 218.4 648.14 248.32 613.52 255.6ZM572.48 240.7C582.07 243.89 583.04 244.02 595 243.68C605.9 243.38 608.72 242.92 616.99 240.12C628.44 236.24 634.3 232.66 643.36 224.03C651.94 215.87 656.94 208.6 661.35 197.87C666.05 186.44 667.33 179.57 667.36 165.5C667.39 151.56 666.11 144.71 661.35 133.13C656.76 121.96 651.79 114.89 642.25 105.94C628.78 93.3101 616.14 88.2201 596 87.3201C581.35 86.6701 572.61 88.4101 560.5 94.4101C541 104.08 527.98 120.26 521.82 142.5C518.65 153.97 518.65 175.05 521.83 186.5C529.22 213.13 547.09 232.24 572.48 240.7ZM343.29 218L343.08 254.5L336.04 254.79L329 255.09V76.0001L369.25 76.0101C420.32 76.0101 429.74 77.2301 444.11 85.6501C450.58 89.4401 460.58 99.7801 462.78 104.95C466.14 112.85 467.78 120.2 467.8 127.42C467.88 151.78 450.95 171.23 424.15 177.6C421.21 178.29 418.6 179.07 418.34 179.32C417.98 179.69 433.41 200.22 451.54 223.5C469.1 246.05 474.71 253.62 474.33 254.25C474.09 254.66 470.04 255 465.33 255C457.25 255 456.67 254.85 454.64 252.3C452.09 249.09 436.04 228.19 417.57 204C410.22 194.38 403.05 185.26 401.63 183.73L399.07 180.97L371.28 181.23L343.5 181.5L343.29 218ZM1010 177.57L1009.5 254.5L1002.96 254.79C999.36 254.95 996.1 254.76 995.71 254.37C995.32 253.99 995 213.69 995 164.83V76.0001H1009.63L1018.53 87.2501C1023.43 93.4401 1034.4 107.28 1042.91 118C1051.41 128.73 1062.48 142.68 1067.49 149C1078.78 163.24 1103.19 194.03 1117.43 212C1123.32 219.43 1128.56 225.65 1129.07 225.83C1129.64 226.04 1130 197.06 1130 151.08V76.0001H1144V255L1138.75 254.99H1133.5L1109.54 224.74C1096.37 208.11 1072.77 178.3 1057.12 158.5C1017.16 107.98 1014.49 104.64 1012.38 102.52C1010.54 100.68 1010.49 102.27 1010 177.57ZM740.76 177.67L740.5 254.5L733.96 254.79C730.36 254.95 727.1 254.76 726.71 254.37C726.32 253.99 726 213.69 726 164.83V76.0001H740.68L747.56 84.7501C751.35 89.5601 760.34 100.93 767.53 110C792.41 141.38 845.57 208.53 852.43 217.25C856.22 222.06 859.7 226 860.16 226C860.62 226 861 192.25 861 151V76.0001H875.01L874.5 254.5L864.4 255.09L850.45 237.43C842.78 227.71 833.58 216.06 830 211.53C770.75 136.42 742.9 101.51 741.94 101.17C741.38 100.97 740.91 131.08 740.76 177.67ZM343.73 167.4C344.14 167.8 360.22 167.96 379.48 167.75C416.54 167.35 418.29 167.14 431.05 161.77C436.54 159.45 446.15 149.92 449.3 143.65C456.15 130.05 452.88 111.35 441.95 101.62C437.37 97.5301 425.43 92.2701 418 91.0701C414.36 90.4801 396.44 90.0101 377.25 90.0101L343 90.0001V128.33C343 149.42 343.33 167 343.73 167.4ZM244.65 255.48C228.82 258.66 207.8 258.06 195.75 254.08C189.83 252.13 178.24 246.24 172.06 242.04C161.15 234.63 148.96 219.96 142.95 207C141.62 204.14 137.91 193.96 137.47 192C137.41 191.73 136.73 189.48 135.97 187C135.01 183.92 134.56 177.13 134.54 165.5C134.5 148.52 134.5 148.49 138.28 136.79C144.08 118.85 150.76 108.07 163.4 96.3101C172.96 87.4101 184.02 81.0101 197 76.8601C207.31 73.5601 207.82 73.5001 225 73.5501C242.43 73.6101 242.54 73.6201 253.53 77.2801C266.17 81.4901 278.68 88.5601 287.5 96.4701L293.5 101.85L288.54 106.92C285.81 109.72 283.08 112 282.47 112C281.87 112 280.05 110.62 278.44 108.93C265.08 94.9801 244.94 87.0201 223 87.0301C210.23 87.0401 201.3 89.0701 190.41 94.4401C174.38 102.35 162.81 115.18 155.52 133.13C150.83 144.68 149.66 152.62 150.24 168.87C150.78 183.67 152.72 191.56 158.82 203.65C166.05 217.96 180.97 232.19 194.83 237.96C207.25 243.14 213.46 244.26 226.81 243.74C237.16 243.34 240.91 242.75 247.17 240.56C256.73 237.21 266.25 231.55 276.15 223.34C280.35 219.85 284.2 217 284.69 217C285.18 217 287.59 219.06 290.04 221.59L294.5 226.18L288.5 231.64C275.79 243.2 258.22 252.75 244.65 255.48ZM806.64 394.39C801.26 397.02 791.03 398.54 786.5 397.38C776.12 394.72 766.22 386.25 760.92 375.49C757.63 368.8 757.5 368.12 757.5 357C757.5 345.97 757.64 345.16 760.8 338.76C764.87 330.49 771.04 324.18 778.68 320.48C783.45 318.16 785.85 317.65 792 317.63C802.51 317.59 809.76 320.58 816.99 327.91C823.7 334.72 826.87 340.93 828.28 350.07C831.13 368.49 822.2 386.77 806.64 394.39ZM93.25 394.01C87.96 395.64 83.95 396 71.06 396C62.41 396 55.03 395.7 54.67 395.33C54.3 394.97 54 377.83 54 357.24V319.82L74.25 320.19C97.19 320.61 99.53 321.19 106.67 328.18C110.8 332.22 115.61 341.29 116.85 347.36C117.2 349.09 117.45 354.17 117.4 358.65C117.22 376.13 108.15 389.4 93.25 394.01ZM347.03 393.2C342.29 395.06 339 395.43 324 395.78C314.38 396 306.16 395.84 305.75 395.42C305.34 395.01 305 377.83 305 357.24V319.82L325.25 320.19C343.99 320.53 345.85 320.73 350.22 322.87C366.54 330.89 373.53 355.8 364.85 375C361.05 383.41 354.24 390.36 347.03 393.2ZM1276.14 393.16C1271.27 395.07 1268.11 395.43 1253 395.78C1243.38 396 1235.16 395.84 1234.75 395.42C1234.34 395.01 1234 377.83 1234 357.24V319.82L1253.75 320.17C1271.78 320.5 1273.94 320.73 1278.5 322.82C1284.41 325.53 1288.31 329.02 1291.53 334.5C1294.34 339.29 1298.01 352.07 1297.98 356.98C1297.96 361.48 1294.85 373.49 1292.55 377.91C1289.32 384.14 1282.17 390.79 1276.14 393.16ZM204.47 395.05C204.15 395.57 202.12 396 199.97 396C196.09 396 196.03 395.94 192.68 388.75C190.82 384.76 187.36 377.56 184.98 372.75L180.67 364H154L153.99 374.25C153.99 379.89 153.7 386.86 153.35 389.75L152.72 395H145V320L165.75 320.01C177.16 320.01 188.2 320.48 190.28 321.06C194.98 322.37 200.86 327.43 202.65 331.7C204.7 336.62 204.38 347.33 202.04 351.91C199.96 356 195.3 360.45 192.01 361.5C190.9 361.85 190 362.56 190 363.08C190 363.6 193.39 370.79 197.53 379.06C201.67 387.33 204.79 394.52 204.47 395.05ZM1882.46 395.07C1882.14 395.58 1880.12 396 1877.97 396C1874.09 396 1874.03 395.94 1870.68 388.75C1868.82 384.76 1865.36 377.56 1862.98 372.75L1858.67 364H1832V377.56C1832 389.88 1831.84 391.11 1830.25 390.95C1826.27 390.54 1825 391.05 1825 393.06C1825 394.19 1824.55 394.84 1824 394.5C1823.36 394.11 1823 380.47 1823 356.87V319.86L1845.75 320.18C1867.36 320.48 1868.7 320.61 1872.52 322.8C1874.73 324.07 1877.65 326.74 1879.02 328.73C1881.22 331.94 1881.5 333.4 1881.5 341.5C1881.5 350.04 1881.31 350.91 1878.63 354.41C1876.12 357.71 1871.54 361.29 1868.5 362.34C1867.95 362.53 1870.99 369.76 1875.27 378.41C1879.54 387.06 1882.77 394.56 1882.46 395.07ZM1333.05 364L1332.5 395.5L1329.46 395.8C1327.79 395.96 1326.11 395.77 1325.71 395.38C1325.32 394.99 1325 377.83 1325 357.25V319.84L1347.75 320.17C1373.59 320.55 1374.86 320.88 1380.46 328.84C1382.9 332.31 1383.51 334.32 1383.82 339.87C1384.33 348.85 1381.06 355.83 1374.48 359.82C1372.05 361.29 1370.05 363.01 1370.03 363.63C1370.01 364.25 1373.2 371.14 1377.12 378.96C1381.04 386.78 1383.85 393.53 1383.37 393.98C1382.89 394.42 1381.04 395.1 1379.25 395.47L1376 396.16L1360.5 364.01H1346.78L1333.05 364ZM734.26 395.4C733.41 396.26 726.47 396.14 725.59 395.25C725.18 394.84 721.53 387.64 717.49 379.25L710.14 364H683V378.5C683 387.5 682.62 393 682 393C681.45 393 681 392.55 681 392C681 391.45 680.1 391 679 391C677.9 391 677 391.65 677 392.44C677 393.23 676.55 394.16 676 394.5C675.34 394.91 675 382.34 675 357.56V320L695.25 320.01C716.17 320.01 721.37 320.71 726.27 324.2C732.89 328.9 736.08 343.04 732.21 350.55C729.86 355.12 725.07 359.96 721.41 361.46L718.86 362.5L726.86 378.65C731.26 387.54 734.59 395.07 734.26 395.4ZM1994.05 364L1993.5 395.5L1986 396.12V320L2006.25 320.01C2027.17 320.01 2032.37 320.71 2037.27 324.2C2043.93 328.93 2046.98 343.2 2043 351.01C2040.94 355.03 2035.3 360.45 2032.11 361.46C2029.65 362.24 2030 363.39 2036.66 376.47C2039.17 381.4 2041.35 386.35 2041.49 387.47C2041.64 388.59 2042.12 390.36 2042.55 391.41C2043.08 392.71 2042.98 393.11 2042.24 392.65C2041.63 392.27 2040.86 392.88 2040.49 394.04C2039.05 398.57 2036.45 395.39 2028.8 379.75L2021.11 364H1994.05ZM783.26 386.95C792.81 391.81 805.36 387.84 813.24 377.47C827.89 358.19 816.94 327.78 794.78 326.18C779.25 325.05 767.39 336.94 766.21 354.82C765.52 365.23 767.93 372.67 774.21 379.54C776.85 382.43 780.93 385.77 783.26 386.95ZM943.01 76.0001L942.5 254.5L935.96 254.79C932.36 254.95 929.1 254.76 928.71 254.37C928.32 253.99 928 213.69 928 164.83V76.0001H943.01ZM1243.25 386.35C1243.94 386.64 1249.68 386.85 1256 386.82C1269.75 386.76 1274.85 385.05 1280.93 378.46C1293.11 365.25 1289.4 337.63 1274.54 330.88C1271.24 329.38 1267.91 329.04 1256.25 329.02L1242 329V357.42C1242 379.21 1242.29 385.95 1243.25 386.35ZM1145.42 392.96C1139.21 395.9 1130.52 397.45 1126.58 396.33C1123.12 395.35 1116.31 390.57 1113.38 387.07C1110.93 384.13 1110.47 382.61 1110.16 376.4C1109.95 372.42 1110.31 367.6 1110.94 365.68C1112.01 362.44 1119.16 354.89 1123.46 352.45C1125.26 351.43 1125.26 351.24 1123.53 346.72C1121.34 340.98 1121.85 333.04 1124.67 329.18C1125.74 327.7 1128.62 325.45 1131.06 324.17C1134.86 322.18 1136.52 321.91 1142.62 322.34C1148.93 322.77 1158 325.86 1158 327.57C1158 328.05 1155.07 334.12 1154.52 334.77C1154.4 334.92 1152.32 334.14 1149.9 333.04C1147.36 331.89 1143.32 331.03 1140.34 331.02C1135.79 331 1134.87 331.37 1132.59 334.08C1131.17 335.77 1130.01 337.91 1130.03 338.83C1130.08 342.58 1134.02 348.46 1143.64 359.19C1145 360.71 1146.22 362.09 1147.33 363.33C1153.61 370.4 1156.05 373.14 1157.92 372.8C1159.44 372.52 1160.6 370.23 1163.13 366.59C1166.04 362.42 1168.94 359 1169.59 359C1170.25 359 1171.79 359.82 1173.03 360.82C1175.25 362.62 1175.26 362.68 1173.43 365.57C1172.41 367.18 1169.6 371.11 1167.19 374.31C1164.93 377.29 1163.67 378.69 1163.67 380.08C1163.67 381.51 1164.99 382.95 1167.92 386.12C1168.34 386.59 1168.81 387.09 1169.31 387.64C1171.13 389.63 1171.78 391.02 1171.09 391.45C1170.49 391.82 1170 392.99 1170 394.06C1170 397.68 1165.74 396.38 1161.66 391.5C1157.77 386.85 1155.14 385.93 1153.02 388.48C1152.35 389.29 1148.93 391.31 1145.42 392.96ZM316.69 386.13C322.89 387.52 337.44 387.03 342.38 385.26C351.83 381.87 358.38 372.14 359.7 359.49C360.41 352.79 357.1 341.77 352.85 336.62C347.55 330.21 343.68 329.05 327.5 329.02L313.5 329L313.87 385.5L316.69 386.13ZM64.75 386.31C65.71 386.56 71.1 386.82 76.73 386.88C92.37 387.06 99.24 383.63 105.08 372.73C108.15 366.99 108.41 365.8 108.4 357.5C108.4 349.94 107.98 347.62 105.83 343C100.43 331.45 95.3 329 76.53 329H63V357.43C63 383.66 63.14 385.89 64.75 386.31ZM1492.77 367.25L1492.5 395.5L1489.46 395.8C1487.79 395.96 1486.11 395.77 1485.71 395.38C1485.32 394.99 1485 377.87 1485 357.33V320L1494.5 320.03L1506.31 343.02C1512.81 355.66 1518.43 366 1518.81 365.99C1519.55 365.98 1521.43 362.55 1534.76 336.75L1543.41 320H1552.02L1551.76 357.75L1551.5 395.5H1544.5L1544.23 367.75C1544.09 352.49 1543.58 340 1543.11 340C1542.36 340 1533.5 356.16 1522.83 377C1521 380.58 1519.06 383.5 1518.51 383.5C1517.97 383.5 1515.8 380.12 1513.69 376C1501.3 351.8 1494.41 339.01 1493.77 339.01C1493.36 339 1492.91 351.71 1492.77 367.25ZM1739.13 394.35C1737.69 396.08 1737.42 396.15 1735 395.34C1734.18 395.07 1732.94 394.67 1732.25 394.45C1731.34 394.17 1731.79 391.96 1733.93 386.28C1737.34 377.22 1752.39 339.9 1754.41 335.5C1755.16 333.85 1756.8 329.67 1758.04 326.2L1760.3 319.9L1764.8 320.2C1767.56 320.38 1769.58 321.08 1770.03 322C1771.31 324.6 1772.73 328.11 1778.55 343C1781.67 350.98 1784.82 358.85 1785.57 360.5C1789.18 368.5 1798 391.24 1798 392.56C1798 394.25 1793.34 396.35 1791.31 395.57C1790.57 395.28 1789.53 393.8 1788.99 392.28C1788.45 390.75 1786.55 385.79 1784.77 381.25L1781.53 373L1766.27 372.83C1757.87 372.74 1750.23 372.63 1749.29 372.58C1748 372.52 1746.71 374.98 1744.04 382.6C1742.09 388.16 1739.88 393.44 1739.13 394.35ZM2076.23 392.75C2074.38 396.87 2072.92 396.86 2070.67 392.69C2068.99 389.57 2068.99 389.11 2070.56 384.44C2071.47 381.72 2072.83 378.38 2073.58 377C2074.33 375.62 2076.34 370.9 2078.05 366.5C2079.76 362.1 2082.88 354.23 2084.97 349C2087.06 343.77 2090.51 335.11 2092.63 329.75L2096.48 320H2105.81L2108.85 328.25C2111.46 335.32 2117.56 350.68 2122.66 363C2132.87 387.64 2134.98 394.34 2131.97 392.48C2131.51 392.2 2130.85 392.9 2130.49 394.04C2129.68 396.59 2126.83 396.26 2125.65 393.49C2125.19 392.4 2123.16 387.27 2121.15 382.11L2117.5 372.71L2101.05 372.92C2092 373.03 2084.29 373.32 2083.9 373.56C2083.52 373.8 2081.97 377.48 2080.45 381.75C2078.94 386.01 2077.04 390.96 2076.23 392.75ZM995.77 367.25L995.5 395.5L992.46 395.8C990.79 395.96 989.11 395.77 988.71 395.38C988.32 394.99 988 377.87 988 357.33V320H991.88C995.62 320 995.99 320.33 1002.44 329.25C1006.12 334.34 1013.4 344.35 1018.61 351.5C1023.82 358.65 1029.97 367.27 1032.27 370.67C1034.58 374.06 1036.81 376.62 1037.23 376.36C1037.65 376.1 1038 363.31 1038 347.94V320H1046.02L1045.76 357.75L1045.5 395.5L1042.32 395.81C1042.1 395.83 1041.9 395.86 1041.71 395.89C1041.4 395.93 1041.12 395.97 1040.84 395.96C1038.76 395.88 1036.78 392.92 1018.5 367.71C1001.26 343.94 997.53 339 996.81 339C996.38 339 995.91 351.71 995.77 367.25ZM465.28 396.43C451.54 399.99 439.82 396.23 429.88 385.07C424.62 379.17 422.02 373.34 419.98 362.89C418.81 356.89 418.88 355.47 420.8 347.62C423.31 337.36 428.15 329.39 434.93 324.39C439.84 320.76 450.24 317 455.36 317C462.81 317 479.51 323.59 483.65 328.16C485.25 329.94 485.19 330.19 482.48 333.02C479.66 335.96 479.6 335.98 477.56 334.1C471.02 328.07 456.96 324.63 448.52 326.99C439.13 329.62 431.4 339.41 428.97 351.73C427.93 357.01 428.01 358.91 429.48 364.94C431.72 374.06 435.95 380.34 442.93 384.88C448.22 388.32 448.92 388.5 457 388.5C463.97 388.5 466.31 388.08 470 386.15C477.81 382.08 478 381.75 478 371.85V363H457V354H486V369.83C486 384.96 485.9 385.74 483.75 387.72C480.44 390.75 472.21 394.63 465.28 396.43ZM864.77 367.25L864.5 395.5L860.75 395.81C858.58 395.99 856.99 395.67 856.99 395.06C856.98 394.48 856.97 378.02 856.97 358.5C856.97 338.98 856.98 322.33 856.99 321.5C857 320.43 858.1 320 860.84 320H864.67L879.55 340.75C887.73 352.16 897.03 365.03 900.21 369.34L906 377.17V320H914.02L913.5 395.5L910.5 395.77C907.8 396.01 906.99 395.31 902.5 388.87C899.75 384.93 894.68 377.83 891.23 373.1C887.78 368.37 882.2 360.67 878.82 356C867.86 340.81 866.51 339.06 865.77 339.03C865.36 339.01 864.91 351.71 864.77 367.25ZM1693.21 396.44C1687.45 397.94 1681.89 398.2 1675.5 397.26C1670.41 396.52 1658.74 390.51 1653.75 386.06L1648.99 381.82L1651.06 378.91C1652.2 377.31 1653.61 376 1654.2 376C1654.78 376 1657.05 377.62 1659.23 379.59C1661.42 381.57 1665.97 384.49 1669.35 386.09C1681.11 391.65 1697.34 389.38 1702.16 381.5C1704.86 377.08 1704.65 368.85 1701.75 365.57C1699.08 362.55 1691.33 360.45 1679.19 359.46C1660.17 357.91 1652.41 351.53 1653.16 338.09C1653.69 328.76 1657.34 323.42 1665.53 320.02C1676.53 315.46 1690.32 317 1703.2 324.24C1707.93 326.89 1708.32 328.06 1705.62 331.45L1703.43 334.2L1696.57 330.43C1690.68 327.19 1688.58 326.59 1681.83 326.2C1668.7 325.44 1661.01 330.02 1661 338.62C1661 345.68 1667.81 349.31 1683.14 350.43C1687.9 350.77 1694.42 351.72 1697.64 352.53C1708.73 355.33 1714.48 364.89 1712.5 377.23C1710.9 387.13 1704.48 393.52 1693.21 396.44ZM2191.3 386.5H2213.09L2212.5 395.5L2184.43 395.77C2168.99 395.91 2156.06 395.72 2155.68 395.35C2153.54 393.2 2155.46 388.7 2162.72 378.91C2166.96 373.19 2176.9 359.73 2184.8 349L2199.16 329.5L2179.08 329.23L2159 328.96V320H2185.5C2205.97 320 2212.03 320.28 2212.12 321.25C2212.15 321.65 2212.19 322.02 2212.2 322.39C2212.27 326 2209.57 329.67 2177.84 372.76L2177.08 373.79C2172.91 379.45 2169.5 384.63 2169.5 385.29C2169.5 386.2 2174.94 386.5 2191.3 386.5ZM633.3 394.13C622.77 398.96 612.18 398.76 602.11 393.55C583.89 384.13 576.46 357.62 586.4 337.5C594.85 320.4 611.5 313.73 630.68 319.76C637.27 321.83 645.88 327.08 646.67 329.5C646.84 330.05 645.94 331.81 644.66 333.41L642.33 336.32L637.81 333.21C635.32 331.5 630.86 329.18 627.89 328.05C609.62 321.11 592.58 333.46 591.21 354.65C590.34 368.13 595.08 378.26 605.48 385.17C610.06 388.21 611.16 388.5 618.08 388.5C624.53 388.5 626.48 388.07 631.08 385.61C634.06 384.03 638.16 381.15 640.18 379.23L643.86 375.73L646.4 378.61C647.8 380.2 648.95 381.8 648.97 382.17C649.05 383.82 638.91 391.56 633.3 394.13ZM1913 392.44C1913 393.23 1912.55 394.16 1912 394.5C1911.34 394.91 1911 382.34 1911 357.56V320H1962.11L1961.5 328.5L1918.93 329.04L1919.5 351.5L1945 352.06V360H1919V376.5C1919 386.83 1918.63 393 1918 393C1917.45 393 1917 392.55 1917 392C1917 391.45 1916.1 391 1915 391C1913.9 391 1913 391.65 1913 392.44ZM1333 329V355H1349.75C1364.79 354.99 1366.84 354.79 1369.81 352.97C1375.53 349.49 1377.47 341.89 1374.33 335.28C1371.72 329.79 1368.59 329 1349.53 329H1333ZM683 329V355H699.92C716.72 355 716.87 354.98 719.96 352.38C726.24 347.1 727.62 340.7 723.72 334.91C720.05 329.47 718.26 329.03 699.75 329.01L683 329ZM2010.43 329H1994V355H2010.92C2027.72 355 2027.87 354.98 2030.96 352.38C2034.75 349.19 2037 345.05 2037 341.28C2037 337.69 2032.61 331.18 2029.36 329.95C2027.99 329.43 2019.47 329 2010.43 329ZM153.97 354.75C153.99 354.89 161.31 355 170.25 355C184.78 354.99 186.85 354.78 189.81 352.97C195.37 349.58 197.38 342.24 194.58 335.53C192.17 329.77 189.32 329 170.3 329H153.5L153.72 341.75C153.84 348.76 153.95 354.61 153.97 354.75ZM1848.55 329H1832V355H1848.87C1864.65 355 1865.91 354.86 1868.49 352.83C1873.64 348.78 1875.45 340.7 1872.48 334.97C1869.77 329.72 1866.87 329 1848.55 329ZM949.57 390.88C948.78 390.94 947.99 392.24 947.82 393.75C947.55 396.04 947.37 396.19 946.75 394.67C946.34 393.66 946 376.45 946 356.42V320H954.94L954.95 355C954.95 377.01 954.59 390.05 953.98 390.12C953.44 390.19 952.55 390.36 952 390.5C951.45 390.64 950.35 390.81 949.57 390.88ZM1126 386.06C1127.92 387.08 1131.07 387.93 1133 387.96C1137.07 388.01 1148.76 382.78 1149.63 380.53C1150.35 378.64 1132.58 359 1130.14 359C1127.42 359.01 1122.11 362.77 1119.94 366.24C1118.36 368.74 1117.98 370.71 1118.28 374.73C1118.71 380.55 1120.46 383.13 1126 386.06ZM2088 363.4C2088 364.78 2089.7 365 2100.44 365C2107.56 365 2113.14 364.58 2113.49 364.01C2113.83 363.47 2113.14 360.88 2111.95 358.26C2110.77 355.64 2108.94 351.02 2107.89 348C2105.14 340.07 2101.6 332.04 2100.86 332.02C2099.67 331.99 2088 360.46 2088 363.4ZM1752 363.28C1752 364.81 1753.35 365 1764.44 365C1771.28 365 1777.12 364.62 1777.41 364.15C1777.7 363.68 1776.67 360.2 1775.13 356.4C1773.59 352.61 1770.79 345.57 1768.91 340.76C1767.04 335.95 1765.23 332.01 1764.91 332.01C1763.57 331.99 1752 360.02 1752 363.28ZM1592.1 385L1591.5 395.5L1587.46 395.8C1585.24 395.96 1583.11 395.77 1582.71 395.38C1582.32 394.99 1582 392.49 1582 389.83V385H1592.1ZM399.8 390.14L399.5 395.28L395.17 395.39C392.78 395.45 390.64 395.31 390.42 395.08C390.19 394.85 390 392.49 390 389.83V385H400.1L399.8 390.14ZM1420.8 390.25C1420.5 395.46 1420.47 395.5 1417 395.8C1412.46 396.18 1411 394.6 1411 389.3V385H1421.1L1420.8 390.25ZM523.8 390.17C523.48 395.75 523.37 395.84 517.75 395.26L514 394.88V385H524.1L523.8 390.17Z" fill="white"/>
<path d="M949.57 390.88C950.35 390.81 951.45 390.64 952 390.5C952.55 390.36 953.44 390.19 953.98 390.12C954.59 390.05 954.95 377.01 954.95 355L954.94 343.87L954.95 356.19C954.96 388.29 954.77 392.59 953.32 394.19C951.74 395.94 949.01 396.4 947.51 395.48C947.62 395.21 947.71 394.65 947.82 393.75C947.99 392.24 948.78 390.94 949.57 390.88ZM1830.07 394.96C1829 395.53 1827.52 396 1826.77 396C1825.67 396 1824.9 395.85 1824.35 394.59C1824.73 394.53 1825 393.94 1825 393.06C1825 391.05 1826.27 390.54 1830.25 390.95C1831.78 391.1 1831.99 389.98 1832 378.96C1832 392.74 1831.85 394.01 1830.07 394.96ZM1913 392.44C1913 391.65 1913.9 391 1915 391C1916.1 391 1917 391.45 1917 392C1917 392.55 1917.45 393 1918 393C1918.62 393 1918.99 386.95 1919 376.8C1919 388.53 1918.64 393.96 1917.8 394.8C1916.51 396.09 1912.75 396.42 1911.67 395.33C1911.44 395.11 1911.24 388.61 1911.12 378.89C1911.27 389.49 1911.57 394.77 1912 394.5C1912.55 394.16 1913 393.23 1913 392.44ZM681.79 394.63C680.2 395.61 676.34 396 675.59 395.26C675.34 395.01 675.13 384.86 675.04 370.85C675.15 386.81 675.47 394.83 676 394.5C676.55 394.16 677 393.23 677 392.44C677 391.65 677.9 391 679 391C680.1 391 681 391.45 681 392C681 392.55 681.45 393 682 393C682.61 393 682.99 387.68 683 378.94C683 389.54 682.65 394.1 681.79 394.63ZM2069.64 387.39C2069.11 389.54 2069.44 390.4 2070.67 392.69C2071.73 394.65 2072.61 395.69 2073.44 395.82C2073.06 395.91 2072.63 395.94 2072.14 395.92C2066.8 395.76 2065.47 393.4 2068.47 389.44C2068.94 388.82 2069.37 388.06 2069.64 387.39ZM2039.39 382.12C2045.77 395.14 2045.67 396.38 2039.88 395.82C2039.74 395.81 2039.61 395.8 2039.48 395.78C2039.88 395.52 2040.2 394.93 2040.49 394.04C2040.86 392.88 2041.63 392.27 2042.24 392.65C2042.98 393.11 2043.08 392.71 2042.55 391.41C2042.12 390.36 2041.64 388.59 2041.49 387.47C2041.41 386.8 2040.58 384.74 2039.39 382.12ZM1169.04 396C1169.64 395.74 1170 395.11 1170 394.06C1170 392.99 1170.49 391.82 1171.09 391.45C1171.78 391.02 1171.13 389.63 1169.31 387.64C1168.81 387.09 1168.34 386.59 1167.92 386.12C1164.99 382.95 1163.67 381.51 1163.67 380.08C1163.67 379.38 1163.99 378.68 1164.58 377.79C1164.02 378.64 1163.71 379.33 1163.7 380.02C1163.67 381.6 1165.19 383.21 1168.73 386.96C1169.23 387.48 1169.77 388.06 1170.35 388.68C1175.13 393.76 1174.79 396 1169.24 396C1169.17 396 1169.11 396 1169.04 396ZM2133.82 394.72C2132.9 395.83 2130.84 396.09 2129 395.69C2129.65 395.5 2130.2 394.95 2130.49 394.04C2130.85 392.9 2131.51 392.2 2131.97 392.48C2134.98 394.34 2132.87 387.64 2122.66 363C2122.43 362.44 2122.2 361.88 2121.97 361.31C2121.99 361.38 2122.02 361.44 2122.05 361.5C2122.54 362.6 2125.65 370.21 2128.96 378.42C2133.63 390.02 2134.71 393.65 2133.82 394.72ZM2037.77 395.32C2035.97 394.34 2034.4 391.2 2028.8 379.75C2033.24 388.83 2035.98 393.71 2037.77 395.32ZM946.81 394.82C946.73 394.69 946.66 394.56 946.61 394.42C946.27 393.55 946 376.45 946 356.42C946 376.45 946.34 393.66 946.75 394.67C946.77 394.72 946.79 394.77 946.81 394.82ZM1823.43 389.3C1823.04 383.93 1823 374.28 1823 356.95C1823 372.2 1823.15 383.28 1823.43 389.3ZM2073.92 376.32C2075.22 373.33 2076.79 369.55 2078 366.5C2079.74 362.1 2082.88 354.23 2084.97 349C2082.88 354.23 2079.76 362.1 2078.05 366.5C2076.56 370.34 2074.83 374.42 2073.92 376.32ZM1166.87 395.79C1165.17 395.39 1163.99 394.28 1161.66 391.5C1163.49 393.69 1165.37 395.16 1166.87 395.79ZM2030.71 363C2030.82 364.35 2032.03 367.09 2035.01 373.23C2031.97 367.18 2030.73 364.4 2030.71 363ZM2069.97 386.19C2069.98 385.59 2070.74 383.49 2071.75 381.16C2071.33 382.25 2070.91 383.39 2070.56 384.44C2070.32 385.13 2070.13 385.73 2069.97 386.25C2069.97 386.23 2069.97 386.21 2069.97 386.19ZM712.6 369.1L710.11 364H710.14L712.6 369.1ZM732.56 395.88C732.13 395.99 731.58 396.01 730.91 395.98C731.5 395.97 732.06 395.93 732.56 395.88ZM2125.71 393.63C2125.69 393.59 2125.67 393.54 2125.65 393.5C2125.19 392.4 2123.16 387.28 2121.16 382.12C2123.16 387.28 2125.19 392.4 2125.65 393.49C2125.67 393.54 2125.69 393.58 2125.71 393.63Z" fill="white"/>
<path d="M1353.57 256.53C1346.8 258.54 1219.82 258.6 1213.5 256.6C1203.34 253.37 1194.27 245.32 1189.22 235.03L1186.5 229.5L1186.22 168.11C1185.91 100.66 1185.91 100.64 1191.94 91.77C1196.17 85.55 1200.66 81.65 1208 77.86L1214.5 74.5L1281 74.21C1326.69 74.01 1348.91 74.26 1352 75.01C1359.19 76.76 1369.08 83.91 1373.59 90.63C1381.8 102.86 1382 104.63 1382 165.64C1382 208.9 1381.75 217.99 1380.38 224.62C1378.4 234.19 1374.48 241.39 1368.11 247.15C1360.84 253.72 1358.95 254.94 1353.57 256.53ZM2056.5 260.51C2041.69 261.91 2037.4 262.12 2036.81 261.5C2036.43 261.11 2034.18 260.65 2031.81 260.49C2029.44 260.32 2026.82 259.98 2026 259.72C2025.18 259.46 2021.16 258.51 2017.07 257.6C1992.42 252.1 1965.3 229.77 1956.24 207.5C1954.9 204.2 1953.44 201.05 1952.99 200.5C1951.64 198.84 1949.25 188.17 1947.52 176.08C1946.18 166.72 1946.09 163.38 1947.02 157.58C1948.97 145.55 1951.03 135.04 1951.92 132.72C1952.38 131.5 1952.78 130.1 1952.79 129.61C1952.81 129.12 1953.22 128.45 1953.69 128.11C1954.17 127.78 1955.44 125.48 1956.53 123.01C1962.1 110.32 1974.36 95.84 1987.17 86.84C1998.43 78.92 2014.65 72.34 2028 70.28C2035.34 69.15 2061.88 69.8 2066 71.21C2066.82 71.5 2070.88 72.67 2075 73.82C2079.12 74.97 2087 78.29 2092.5 81.19C2100.97 85.66 2104.11 88.09 2113 96.99C2119.32 103.31 2124.67 109.69 2126.44 113C2128.06 116.03 2129.92 119.04 2130.57 119.7C2131.5 120.64 2137.47 137.49 2138.65 142.5C2141.01 152.51 2141.65 169.6 2140.04 179.5C2136.7 200.05 2123.26 225.06 2109.23 236.81C2097.24 246.85 2081.91 254.94 2069.73 257.64C2065.76 258.53 2061.82 259.47 2061 259.74C2060.18 260.01 2058.15 260.35 2056.5 260.51ZM1460 197V258H1418.99L1419.24 165.25L1419.5 72.5H1467.5C1521.6 72.5 1524.02 72.73 1538.93 79.25C1555.04 86.3 1566.84 99.95 1570.7 116C1572.05 121.64 1572.77 143.57 1571.63 144.7C1571.28 145.05 1571 146.3 1571 147.49C1571 149.99 1568.02 159.26 1566.97 160C1566.59 160.27 1565.3 162.41 1564.12 164.75C1561.57 169.77 1552.38 179.24 1547.76 181.61C1545.97 182.53 1544.28 183.55 1544 183.89C1543.72 184.23 1541.36 185.55 1538.75 186.82C1536.14 188.1 1534 189.47 1534 189.88C1534 190.29 1534.89 191.57 1535.97 192.74C1537.05 193.9 1538.74 196.16 1539.72 197.76C1540.7 199.37 1544.55 204.91 1548.27 210.09C1552 215.26 1558.87 224.9 1563.55 231.5C1568.23 238.1 1572.75 244.33 1573.61 245.35C1574.46 246.37 1576.71 249.63 1578.61 252.6L1582.06 258H1535.18L1532.59 254.92C1531.17 253.23 1530 251.52 1530 251.11C1530 250.71 1529.13 249.44 1528.06 248.29C1526.99 247.15 1524.63 243.96 1522.81 241.22C1517.51 233.23 1496.87 203.81 1494.06 200.25L1491.5 197H1460ZM1808.24 220.75L1807.98 258H1768V71.96L1807.5 72.5L1808.02 145H1882.98L1883.5 72.5L1923 71.96V258H1883.02L1882.76 220.75L1882.5 183.5H1808.5L1808.24 220.75ZM1686 110V258H1646V110.03L1618.25 109.77L1590.5 109.5L1589.96 72H1743V110H1686ZM2032.5 222.59C2054.37 228 2081.1 215.74 2091.75 195.42C2099.15 181.3 2101.34 163.14 2097.29 149.5C2091.96 131.54 2083.86 120.66 2070.56 113.58C2067.89 112.16 2065.09 111 2064.35 111C2063.61 111 2063 110.5 2063 109.89C2063 109.28 2062.38 109.02 2061.62 109.31C2060.86 109.61 2059.72 109.32 2059.08 108.68C2057.72 107.32 2035.95 106.37 2033.25 107.55C2032.29 107.97 2030.92 108.22 2030.22 108.11C2029.51 107.99 2025.13 109.69 2020.49 111.89C2005.79 118.85 1994.09 133.04 1990.5 148.28C1988.61 156.28 1988.61 172.74 1990.5 180.75C1992.42 188.89 1997.72 199.29 2002.98 205.26C2009.85 213.04 2021.49 219.87 2032.5 222.59ZM1220.5 228.16C1222.79 229.56 1225.52 229.99 1232.09 230H1240.68L1241.87 226.03C1243.26 221.39 1248.62 216.47 1254.5 214.42C1257.5 213.38 1264.79 213.03 1283.72 213.02C1308.18 213 1309.11 213.07 1314.37 215.4C1319.56 217.7 1325 223.47 1325 226.7C1325 228.91 1328.73 230 1336.25 230C1343.28 230 1343.84 229.83 1347.82 226.42L1352 222.84V201.42C1352 189.64 1351.83 180 1351.63 180C1351.05 180 1343.15 184.74 1336.5 189.08C1327.88 194.71 1326.17 195.31 1322.78 193.91C1318.67 192.21 1316 188.33 1316 184.09C1316 179.1 1317.96 176.71 1325.79 172.08C1333.53 167.51 1348.91 157.61 1350.75 156.01C1351.44 155.41 1352 154.04 1352 152.96C1352 151.03 1350.87 151 1283 151H1214V173.44C1214 185.78 1214.35 196.1 1214.78 196.37C1215.22 196.63 1220.05 194.08 1225.52 190.68C1234.08 185.38 1236.08 184.54 1239.84 184.69C1245.97 184.92 1249 187.91 1249 193.74C1249 197.25 1248.45 198.63 1246.25 200.66C1242.99 203.66 1225.37 215 1223.97 215C1223.44 215 1223 215.4 1223 215.88C1223 216.36 1221.63 217.32 1219.96 218.02C1213.82 220.56 1214.01 224.19 1220.5 228.16ZM1460 109V160.2L1484.75 159.75C1514.18 159.22 1517.84 158.44 1525.14 151.14C1531.92 144.36 1533.67 135.98 1530.52 125.39C1528.16 117.43 1523.51 113.94 1511.17 110.85C1505.07 109.33 1499.84 109 1481.87 109H1460ZM1214.67 128.33C1215.03 128.7 1246.08 129 1283.67 129H1352V119.4C1352 111.38 1351.67 109.34 1349.98 106.97C1347.53 103.53 1340.43 101.68 1331.53 102.17C1325.72 102.49 1325.54 102.58 1324.61 105.86C1323.37 110.18 1317.51 115.83 1312.45 117.6C1309.5 118.62 1301.97 118.97 1282.71 118.98C1258.45 119 1256.67 118.87 1252.71 116.89C1246.72 113.89 1243.13 110.18 1241.95 105.8L1240.92 102H1233.08C1224.18 102 1219.21 103.64 1216.09 107.61C1214.33 109.85 1214 111.66 1214 118.97C1214 123.75 1214.3 127.97 1214.67 128.33Z" fill="#B39658"/>
</g>
<defs>
<clipPath id="clip0_2239_3390">
<rect width="2272" height="462" fill="white"/>
</clipPath>
</defs>
</svg>
